<?xml version="1.0" encoding="UTF-8" standalone="no"?>
<!-- Created with Inkscape (http://www.inkscape.org/) -->

<svg
   xmlns:dc="http://purl.org/dc/elements/1.1/"
   xmlns:cc="http://creativecommons.org/ns#"
   xmlns:rdf="http://www.w3.org/1999/02/22-rdf-syntax-ns#"
   xmlns:svg="http://www.w3.org/2000/svg"
   xmlns="http://www.w3.org/2000/svg"
   xmlns:sodipodi="http://sodipodi.sourceforge.net/DTD/sodipodi-0.dtd"
   xmlns:inkscape="http://www.inkscape.org/namespaces/inkscape"
   width="30"
   height="30"
   id="svg2"
   version="1.1"
   inkscape:version="0.48.5 r10040"
   sodipodi:docname="icon.svg"
   inkscape:export-filename="C:\Users\NathanPhillip\AeroFS\repos\Neko2k.RandomBuildString\icon.png"
   inkscape:export-xdpi="300"
   inkscape:export-ydpi="300">
  <defs
     id="defs4" />
  <sodipodi:namedview
     id="base"
     pagecolor="#ffffff"
     bordercolor="#666666"
     borderopacity="1.0"
     inkscape:pageopacity="0.0"
     inkscape:pageshadow="2"
     inkscape:zoom="11.313708"
     inkscape:cx="15"
     inkscape:cy="14.405421"
     inkscape:document-units="px"
     inkscape:current-layer="layer1"
     showgrid="false"
     units="pt"
     inkscape:window-width="1920"
     inkscape:window-height="1027"
     inkscape:window-x="-8"
     inkscape:window-y="-8"
     inkscape:window-maximized="1" />
  <metadata
     id="metadata7">
    <rdf:RDF>
      <cc:Work
         rdf:about="">
        <dc:format>image/svg+xml</dc:format>
        <dc:type
           rdf:resource="http://purl.org/dc/dcmitype/StillImage" />
        <dc:title></dc:title>
      </cc:Work>
    </rdf:RDF>
  </metadata>
  <g
     inkscape:label="Layer 1"
     inkscape:groupmode="layer"
     id="layer1"
     transform="translate(0,-1022.3622)">
    <path
       style="fill:#ffffff;stroke:#000000;stroke-width:1px;stroke-linecap:butt;stroke-linejoin:miter;stroke-opacity:1;fill-opacity:1"
       d="M 15.594262,3.7329568 6.7143737,5.1382869 2.0690048,1.8768015 4.129665,9.2917771 c 0,0 -3.92157292,25.2973729 10.036519,16.6345529 C 29.873737,35.450825 27.091029,7.1516121 27.091029,7.1516121 L 28.171834,2.0643015 23.94566,5.3440927 z"
       id="path3783"
       inkscape:connector-curvature="0"
       transform="translate(0,1022.3622)"
       sodipodi:nodetypes="ccccccccc" />
    <path
       style="fill:none;stroke:#000000;stroke-width:1px;stroke-linecap:butt;stroke-linejoin:miter;stroke-opacity:1"
       d="m 8.1709416,20.500631 c 0,0 4.5767274,6.164074 6.4068544,-0.666053 2.45725,6.465476 7.574747,-0.06434 7.574747,-0.06434"
       id="path2985"
       inkscape:connector-curvature="0"
       transform="translate(0,1022.3622)"
       sodipodi:nodetypes="ccc" />
    <path
       sodipodi:type="arc"
       style="fill:#ffffff;fill-opacity:1;stroke:#000000;stroke-width:1;stroke-miterlimit:4;stroke-opacity:1;stroke-dasharray:none"
       id="path2987"
       sodipodi:cx="10.59375"
       sodipodi:cy="9.1875"
       sodipodi:rx="4.96875"
       sodipodi:ry="3.25"
       d="m 15.5625,9.1875 a 4.96875,3.25 0 1 1 -9.9375,0 4.96875,3.25 0 1 1 9.9375,0 z"
       transform="translate(-0.53033009,1023.688)" />
    <path
       sodipodi:type="arc"
       style="fill:#ffffff;fill-opacity:1;stroke:#000000;stroke-width:1;stroke-miterlimit:4;stroke-opacity:1;stroke-dasharray:none"
       id="path3775"
       sodipodi:cx="21.080622"
       sodipodi:cy="9.4939032"
       sodipodi:rx="5.1453691"
       sodipodi:ry="3.1105971"
       d="m 26.225991,9.4939032 a 5.1453691,3.1105971 0 1 1 -10.290738,0 5.1453691,3.1105971 0 1 1 10.290738,0 z"
       transform="translate(0.1767767,1023.7764)" />
    <path
       sodipodi:type="arc"
       style="fill:#ffffff;fill-opacity:1;stroke:#000000;stroke-width:1;stroke-miterlimit:4;stroke-opacity:1;stroke-dasharray:none"
       id="path3777"
       sodipodi:cx="10.783379"
       sodipodi:cy="9.2950296"
       sodipodi:rx="0.66291261"
       sodipodi:ry="3.2166407"
       d="m 11.446291,9.2950296 a 0.66291261,3.2166407 0 1 1 -1.325825,0 0.66291261,3.2166407 0 1 1 1.325825,0 z"
       transform="translate(-0.53033009,1023.688)" />
    <path
       sodipodi:type="arc"
       style="fill:#ffffff;fill-opacity:1;stroke:#000000;stroke-width:1;stroke-miterlimit:4;stroke-opacity:1;stroke-dasharray:none"
       id="path3779"
       sodipodi:cx="21.456272"
       sodipodi:cy="9.560195"
       sodipodi:rx="0.6408155"
       sodipodi:ry="3.0215583"
       d="m 22.097088,9.560195 a 0.6408155,3.0215583 0 1 1 -1.281631,0 0.6408155,3.0215583 0 1 1 1.281631,0 z"
       transform="translate(0.1767767,1023.7764)" />
    <path
       style="fill:none;stroke:#000000;stroke-width:1px;stroke-linecap:butt;stroke-linejoin:miter;stroke-opacity:1"
       d="m 14.565772,19.157801 -1.726714,-3.587849 4.038675,0.01072 z"
       id="path3781"
       inkscape:connector-curvature="0"
       transform="translate(0,1022.3622)"
       sodipodi:nodetypes="cccc" />
  </g>
</svg>
